<?xml version="1.0" encoding="UTF-8"?>
<svg xmlns="http://www.w3.org/2000/svg" xmlns:xlink="http://www.w3.org/1999/xlink" width="375pt" height="374.999991pt" viewBox="0 0 375 374.999991" version="1.2">
<defs>
<clipPath id="clip1">
  <path d="M 79.296875 87.039062 L 296.046875 87.039062 L 296.046875 288 L 79.296875 288 Z M 79.296875 87.039062 "/>
</clipPath>
<clipPath id="clip2">
  <path d="M 123 87.039062 L 252 87.039062 L 252 215 L 123 215 Z M 123 87.039062 "/>
</clipPath>
<filter id="alpha" filterUnits="objectBoundingBox" x="0%" y="0%" width="100%" height="100%">
  <feColorMatrix type="matrix" in="SourceGraphic" values="0 0 0 0 1 0 0 0 0 1 0 0 0 0 1 0 0 0 1 0"/>
</filter>
<mask id="mask0">
  <g filter="url(#alpha)">
<rect x="0" y="0" width="375" height="374.999991" style="fill:rgb(0%,0%,0%);fill-opacity:0.498;stroke:none;"/>
  </g>
</mask>
<clipPath id="clip4">
  <path d="M 0.359375 0.121094 L 128.761719 0.121094 L 128.761719 127.800781 L 0.359375 127.800781 Z M 0.359375 0.121094 "/>
</clipPath>
<clipPath id="clip3">
  <rect x="0" y="0" width="129" height="128"/>
</clipPath>
<g id="surface5" clip-path="url(#clip3)">
<g clip-path="url(#clip4)" clip-rule="nonzero">
<path style=" stroke:none;fill-rule:nonzero;fill:rgb(0%,0%,0%);fill-opacity:1;" d="M 128.433594 63.828125 C 128.433594 64.871094 128.40625 65.910156 128.355469 66.953125 C 128.304688 67.992188 128.230469 69.03125 128.125 70.066406 C 128.023438 71.105469 127.898438 72.140625 127.742188 73.167969 C 127.589844 74.199219 127.414062 75.226562 127.210938 76.25 C 127.003906 77.269531 126.777344 78.285156 126.523438 79.296875 C 126.269531 80.308594 125.992188 81.3125 125.6875 82.308594 C 125.386719 83.304688 125.058594 84.292969 124.707031 85.273438 C 124.355469 86.257812 123.980469 87.226562 123.582031 88.191406 C 123.183594 89.152344 122.761719 90.105469 122.3125 91.046875 C 121.867188 91.988281 121.398438 92.917969 120.90625 93.839844 C 120.414062 94.757812 119.902344 95.664062 119.367188 96.558594 C 118.828125 97.449219 118.269531 98.332031 117.691406 99.195312 C 117.113281 100.0625 116.511719 100.914062 115.890625 101.75 C 115.269531 102.589844 114.628906 103.410156 113.964844 104.214844 C 113.304688 105.019531 112.621094 105.808594 111.921875 106.582031 C 111.222656 107.351562 110.503906 108.105469 109.765625 108.84375 C 109.027344 109.582031 108.273438 110.300781 107.5 111 C 106.726562 111.699219 105.9375 112.378906 105.128906 113.039062 C 104.324219 113.699219 103.5 114.339844 102.664062 114.960938 C 101.824219 115.582031 100.972656 116.183594 100.105469 116.761719 C 99.238281 117.339844 98.359375 117.898438 97.464844 118.433594 C 96.566406 118.96875 95.660156 119.480469 94.742188 119.972656 C 93.820312 120.464844 92.890625 120.933594 91.945312 121.378906 C 91.003906 121.824219 90.050781 122.246094 89.085938 122.644531 C 88.121094 123.042969 87.148438 123.417969 86.167969 123.769531 C 85.183594 124.121094 84.195312 124.445312 83.195312 124.75 C 82.199219 125.050781 81.195312 125.328125 80.183594 125.582031 C 79.171875 125.835938 78.152344 126.0625 77.128906 126.265625 C 76.105469 126.46875 75.078125 126.648438 74.046875 126.800781 C 73.015625 126.953125 71.980469 127.082031 70.941406 127.183594 C 69.902344 127.285156 68.863281 127.363281 67.820312 127.414062 C 66.78125 127.464844 65.738281 127.488281 64.695312 127.488281 C 63.652344 127.488281 62.609375 127.464844 61.566406 127.414062 C 60.523438 127.363281 59.484375 127.285156 58.445312 127.183594 C 57.410156 127.082031 56.375 126.953125 55.34375 126.800781 C 54.308594 126.648438 53.28125 126.46875 52.257812 126.265625 C 51.238281 126.0625 50.21875 125.835938 49.207031 125.582031 C 48.195312 125.328125 47.191406 125.050781 46.191406 124.75 C 45.195312 124.445312 44.203125 124.121094 43.222656 123.769531 C 42.238281 123.417969 41.265625 123.042969 40.300781 122.644531 C 39.339844 122.246094 38.386719 121.824219 37.441406 121.378906 C 36.5 120.933594 35.566406 120.464844 34.648438 119.972656 C 33.726562 119.480469 32.820312 118.96875 31.925781 118.433594 C 31.03125 117.898438 30.148438 117.339844 29.28125 116.761719 C 28.414062 116.183594 27.5625 115.582031 26.726562 114.960938 C 25.886719 114.339844 25.066406 113.699219 24.257812 113.039062 C 23.453125 112.378906 22.664062 111.699219 21.890625 111 C 21.117188 110.300781 20.363281 109.582031 19.625 108.84375 C 18.886719 108.105469 18.167969 107.351562 17.46875 106.582031 C 16.765625 105.808594 16.085938 105.019531 15.421875 104.214844 C 14.761719 103.410156 14.121094 102.589844 13.5 101.75 C 12.878906 100.914062 12.277344 100.0625 11.699219 99.195312 C 11.117188 98.332031 10.558594 97.449219 10.023438 96.558594 C 9.488281 95.664062 8.972656 94.757812 8.480469 93.839844 C 7.988281 92.917969 7.519531 91.988281 7.074219 91.046875 C 6.628906 90.105469 6.207031 89.152344 5.808594 88.191406 C 5.40625 87.226562 5.03125 86.257812 4.679688 85.273438 C 4.328125 84.292969 4.003906 83.304688 3.699219 82.308594 C 3.398438 81.3125 3.117188 80.308594 2.867188 79.296875 C 2.613281 78.285156 2.382812 77.269531 2.179688 76.25 C 1.976562 75.226562 1.796875 74.199219 1.644531 73.167969 C 1.492188 72.140625 1.363281 71.105469 1.261719 70.066406 C 1.160156 69.03125 1.082031 67.992188 1.03125 66.953125 C 0.980469 65.910156 0.957031 64.871094 0.957031 63.828125 C 0.957031 62.785156 0.980469 61.746094 1.03125 60.703125 C 1.082031 59.664062 1.160156 58.625 1.261719 57.589844 C 1.363281 56.550781 1.492188 55.519531 1.644531 54.488281 C 1.796875 53.457031 1.976562 52.429688 2.179688 51.410156 C 2.382812 50.386719 2.613281 49.371094 2.867188 48.359375 C 3.117188 47.347656 3.398438 46.34375 3.699219 45.347656 C 4.003906 44.351562 4.328125 43.363281 4.679688 42.382812 C 5.03125 41.398438 5.40625 40.429688 5.808594 39.464844 C 6.207031 38.503906 6.628906 37.550781 7.074219 36.609375 C 7.519531 35.667969 7.988281 34.738281 8.480469 33.820312 C 8.972656 32.898438 9.488281 31.992188 10.023438 31.101562 C 10.558594 30.207031 11.117188 29.324219 11.699219 28.460938 C 12.277344 27.59375 12.878906 26.742188 13.5 25.90625 C 14.121094 25.066406 14.761719 24.246094 15.421875 23.441406 C 16.085938 22.636719 16.765625 21.847656 17.46875 21.074219 C 18.167969 20.304688 18.886719 19.550781 19.625 18.8125 C 20.363281 18.074219 21.117188 17.359375 21.890625 16.65625 C 22.664062 15.957031 23.453125 15.277344 24.257812 14.617188 C 25.066406 13.957031 25.886719 13.316406 26.726562 12.695312 C 27.5625 12.074219 28.414062 11.472656 29.28125 10.894531 C 30.148438 10.316406 31.03125 9.757812 31.925781 9.222656 C 32.820312 8.6875 33.726562 8.175781 34.648438 7.683594 C 35.566406 7.191406 36.5 6.722656 37.441406 6.277344 C 38.386719 5.832031 39.339844 5.410156 40.300781 5.011719 C 41.265625 4.613281 42.238281 4.238281 43.222656 3.886719 C 44.203125 3.535156 45.195312 3.210938 46.191406 2.90625 C 47.191406 2.605469 48.195312 2.328125 49.207031 2.074219 C 50.21875 1.820312 51.238281 1.59375 52.257812 1.390625 C 53.28125 1.1875 54.308594 1.007812 55.34375 0.855469 C 56.375 0.703125 57.410156 0.574219 58.445312 0.472656 C 59.484375 0.371094 60.523438 0.292969 61.566406 0.242188 C 62.609375 0.191406 63.652344 0.167969 64.695312 0.167969 C 65.738281 0.167969 66.78125 0.191406 67.820312 0.242188 C 68.863281 0.292969 69.902344 0.371094 70.941406 0.472656 C 71.980469 0.574219 73.015625 0.703125 74.046875 0.855469 C 75.078125 1.007812 76.105469 1.1875 77.128906 1.390625 C 78.152344 1.59375 79.171875 1.820312 80.183594 2.074219 C 81.195312 2.328125 82.199219 2.605469 83.195312 2.90625 C 84.195312 3.210938 85.183594 3.535156 86.167969 3.886719 C 87.148438 4.238281 88.121094 4.613281 89.085938 5.011719 C 90.050781 5.410156 91.003906 5.832031 91.945312 6.277344 C 92.890625 6.722656 93.820312 7.191406 94.742188 7.683594 C 95.660156 8.175781 96.566406 8.6875 97.464844 9.222656 C 98.359375 9.757812 99.238281 10.316406 100.105469 10.894531 C 100.972656 11.472656 101.824219 12.074219 102.664062 12.695312 C 103.5 13.316406 104.324219 13.957031 105.128906 14.617188 C 105.9375 15.277344 106.726562 15.957031 107.5 16.65625 C 108.273438 17.359375 109.027344 18.074219 109.765625 18.8125 C 110.503906 19.550781 111.222656 20.304688 111.921875 21.074219 C 112.621094 21.847656 113.304688 22.636719 113.964844 23.441406 C 114.628906 24.246094 115.269531 25.066406 115.890625 25.90625 C 116.511719 26.742188 117.113281 27.59375 117.691406 28.460938 C 118.269531 29.324219 118.828125 30.207031 119.367188 31.101562 C 119.902344 31.992188 120.414062 32.898438 120.90625 33.820312 C 121.398438 34.738281 121.867188 35.667969 122.3125 36.609375 C 122.761719 37.550781 123.183594 38.503906 123.582031 39.464844 C 123.980469 40.429688 124.355469 41.398438 124.707031 42.382812 C 125.058594 43.363281 125.386719 44.351562 125.6875 45.347656 C 125.992188 46.34375 126.269531 47.347656 126.523438 48.359375 C 126.777344 49.371094 127.003906 50.386719 127.210938 51.410156 C 127.414062 52.429688 127.589844 53.457031 127.742188 54.488281 C 127.898438 55.519531 128.023438 56.550781 128.125 57.589844 C 128.230469 58.625 128.304688 59.664062 128.355469 60.703125 C 128.40625 61.746094 128.433594 62.785156 128.433594 63.828125 Z M 128.433594 63.828125 "/>
</g>
</g>
<clipPath id="clip5">
  <path d="M 163 155 L 296.046875 155 L 296.046875 288.039062 L 163 288.039062 Z M 163 155 "/>
</clipPath>
<mask id="mask1">
  <g filter="url(#alpha)">
<rect x="0" y="0" width="375" height="374.999991" style="fill:rgb(0%,0%,0%);fill-opacity:0.098;stroke:none;"/>
  </g>
</mask>
<clipPath id="clip7">
  <path d="M 0.441406 0.519531 L 133.046875 0.519531 L 133.046875 133 L 0.441406 133 Z M 0.441406 0.519531 "/>
</clipPath>
<clipPath id="clip6">
  <rect x="0" y="0" width="134" height="134"/>
</clipPath>
<g id="surface8" clip-path="url(#clip6)">
<g clip-path="url(#clip7)" clip-rule="nonzero">
<path style=" stroke:none;fill-rule:nonzero;fill:rgb(0%,0%,0%);fill-opacity:1;" d="M 133.046875 66.902344 C 133.046875 67.980469 133.019531 69.0625 132.96875 70.140625 C 132.914062 71.21875 132.835938 72.296875 132.726562 73.371094 C 132.621094 74.445312 132.488281 75.519531 132.332031 76.585938 C 132.171875 77.65625 131.988281 78.71875 131.777344 79.777344 C 131.566406 80.839844 131.328125 81.890625 131.066406 82.941406 C 130.804688 83.988281 130.515625 85.027344 130.199219 86.0625 C 129.886719 87.097656 129.546875 88.121094 129.183594 89.140625 C 128.820312 90.15625 128.429688 91.164062 128.015625 92.160156 C 127.601562 93.160156 127.164062 94.148438 126.703125 95.125 C 126.238281 96.101562 125.753906 97.066406 125.242188 98.019531 C 124.734375 98.96875 124.199219 99.910156 123.644531 100.835938 C 123.085938 101.761719 122.507812 102.675781 121.910156 103.574219 C 121.308594 104.472656 120.683594 105.355469 120.039062 106.222656 C 119.394531 107.089844 118.730469 107.941406 118.042969 108.777344 C 117.359375 109.613281 116.652344 110.429688 115.925781 111.230469 C 115.199219 112.03125 114.453125 112.8125 113.6875 113.578125 C 112.925781 114.339844 112.140625 115.085938 111.339844 115.8125 C 110.539062 116.535156 109.71875 117.242188 108.882812 117.925781 C 108.046875 118.613281 107.195312 119.277344 106.328125 119.921875 C 105.457031 120.5625 104.574219 121.1875 103.675781 121.785156 C 102.773438 122.386719 101.863281 122.964844 100.933594 123.519531 C 100.007812 124.074219 99.066406 124.605469 98.113281 125.117188 C 97.15625 125.625 96.191406 126.109375 95.214844 126.574219 C 94.234375 127.035156 93.246094 127.472656 92.25 127.886719 C 91.25 128.300781 90.238281 128.6875 89.222656 129.050781 C 88.203125 129.414062 87.175781 129.753906 86.140625 130.066406 C 85.105469 130.382812 84.066406 130.667969 83.015625 130.933594 C 81.964844 131.195312 80.910156 131.429688 79.851562 131.640625 C 78.789062 131.851562 77.722656 132.039062 76.652344 132.195312 C 75.585938 132.355469 74.511719 132.488281 73.433594 132.59375 C 72.359375 132.699219 71.28125 132.777344 70.199219 132.832031 C 69.121094 132.882812 68.039062 132.910156 66.957031 132.910156 C 65.875 132.910156 64.792969 132.882812 63.714844 132.832031 C 62.632812 132.777344 61.554688 132.699219 60.480469 132.59375 C 59.402344 132.488281 58.328125 132.355469 57.257812 132.195312 C 56.191406 132.039062 55.125 131.851562 54.0625 131.640625 C 53.003906 131.429688 51.949219 131.195312 50.898438 130.933594 C 49.847656 130.667969 48.808594 130.382812 47.773438 130.066406 C 46.738281 129.753906 45.710938 129.414062 44.691406 129.050781 C 43.671875 128.6875 42.664062 128.300781 41.664062 127.886719 C 40.667969 127.472656 39.679688 127.035156 38.699219 126.574219 C 37.722656 126.109375 36.757812 125.625 35.800781 125.117188 C 34.847656 124.605469 33.90625 124.074219 32.980469 123.519531 C 32.050781 122.964844 31.140625 122.386719 30.238281 121.785156 C 29.339844 121.1875 28.457031 120.5625 27.585938 119.921875 C 26.71875 119.277344 25.867188 118.613281 25.03125 117.925781 C 24.195312 117.242188 23.375 116.535156 22.574219 115.8125 C 21.773438 115.085938 20.988281 114.339844 20.222656 113.578125 C 19.460938 112.8125 18.714844 112.03125 17.988281 111.230469 C 17.261719 110.429688 16.554688 109.613281 15.867188 108.777344 C 15.183594 107.941406 14.519531 107.089844 13.875 106.222656 C 13.230469 105.355469 12.605469 104.472656 12.003906 103.574219 C 11.40625 102.675781 10.824219 101.761719 10.269531 100.835938 C 9.714844 99.910156 9.179688 98.96875 8.671875 98.019531 C 8.160156 97.066406 7.675781 96.101562 7.210938 95.125 C 6.75 94.148438 6.3125 93.160156 5.898438 92.160156 C 5.484375 91.164062 5.09375 90.15625 4.730469 89.140625 C 4.367188 88.121094 4.027344 87.097656 3.714844 86.0625 C 3.398438 85.027344 3.109375 83.988281 2.847656 82.941406 C 2.585938 81.890625 2.347656 80.839844 2.136719 79.777344 C 1.925781 78.71875 1.742188 77.65625 1.582031 76.585938 C 1.425781 75.519531 1.292969 74.445312 1.1875 73.371094 C 1.078125 72.296875 1 71.21875 0.945312 70.140625 C 0.894531 69.0625 0.867188 67.980469 0.867188 66.902344 C 0.867188 65.820312 0.894531 64.742188 0.945312 63.664062 C 1 62.582031 1.078125 61.507812 1.1875 60.429688 C 1.292969 59.355469 1.425781 58.285156 1.582031 57.214844 C 1.742188 56.148438 1.925781 55.082031 2.136719 54.023438 C 2.347656 52.964844 2.585938 51.910156 2.847656 50.863281 C 3.109375 49.8125 3.398438 48.773438 3.714844 47.738281 C 4.027344 46.707031 4.367188 45.679688 4.730469 44.664062 C 5.09375 43.644531 5.484375 42.636719 5.898438 41.640625 C 6.3125 40.640625 6.75 39.65625 7.210938 38.679688 C 7.675781 37.703125 8.160156 36.738281 8.671875 35.785156 C 9.179688 34.832031 9.714844 33.890625 10.269531 32.964844 C 10.824219 32.039062 11.40625 31.125 12.003906 30.226562 C 12.605469 29.332031 13.230469 28.445312 13.875 27.578125 C 14.519531 26.710938 15.183594 25.859375 15.867188 25.023438 C 16.554688 24.191406 17.261719 23.371094 17.988281 22.570312 C 18.714844 21.773438 19.460938 20.988281 20.222656 20.226562 C 20.988281 19.460938 21.773438 18.71875 22.574219 17.992188 C 23.375 17.265625 24.195312 16.5625 25.03125 15.875 C 25.867188 15.191406 26.71875 14.527344 27.585938 13.882812 C 28.457031 13.238281 29.339844 12.617188 30.238281 12.015625 C 31.140625 11.417969 32.050781 10.839844 32.980469 10.28125 C 33.90625 9.726562 34.847656 9.195312 35.800781 8.6875 C 36.757812 8.175781 37.722656 7.691406 38.699219 7.230469 C 39.679688 6.765625 40.667969 6.328125 41.664062 5.917969 C 42.664062 5.503906 43.671875 5.113281 44.691406 4.75 C 45.710938 4.386719 46.738281 4.046875 47.773438 3.734375 C 48.808594 3.421875 49.847656 3.132812 50.898438 2.871094 C 51.949219 2.609375 53.003906 2.371094 54.0625 2.160156 C 55.125 1.949219 56.191406 1.765625 57.257812 1.605469 C 58.328125 1.449219 59.402344 1.316406 60.480469 1.210938 C 61.554688 1.105469 62.632812 1.023438 63.714844 0.972656 C 64.792969 0.917969 65.875 0.890625 66.957031 0.890625 C 68.039062 0.890625 69.121094 0.917969 70.199219 0.972656 C 71.28125 1.023438 72.359375 1.105469 73.433594 1.210938 C 74.511719 1.316406 75.585938 1.449219 76.65625 1.605469 C 77.722656 1.765625 78.789062 1.949219 79.851562 2.160156 C 80.910156 2.371094 81.964844 2.609375 83.015625 2.871094 C 84.066406 3.132812 85.105469 3.421875 86.140625 3.734375 C 87.175781 4.046875 88.203125 4.386719 89.222656 4.75 C 90.238281 5.113281 91.25 5.503906 92.25 5.917969 C 93.246094 6.328125 94.234375 6.765625 95.214844 7.230469 C 96.191406 7.691406 97.15625 8.175781 98.113281 8.6875 C 99.066406 9.195312 100.007812 9.726562 100.933594 10.28125 C 101.863281 10.839844 102.773438 11.417969 103.675781 12.015625 C 104.574219 12.617188 105.457031 13.238281 106.328125 13.882812 C 107.195312 14.527344 108.046875 15.191406 108.882812 15.875 C 109.71875 16.5625 110.539062 17.265625 111.339844 17.992188 C 112.140625 18.71875 112.925781 19.460938 113.6875 20.226562 C 114.453125 20.988281 115.199219 21.773438 115.925781 22.570312 C 116.652344 23.371094 117.359375 24.191406 118.042969 25.023438 C 118.730469 25.859375 119.394531 26.710938 120.039062 27.578125 C 120.683594 28.445312 121.308594 29.332031 121.910156 30.226562 C 122.507812 31.125 123.085938 32.039062 123.644531 32.964844 C 124.199219 33.890625 124.734375 34.832031 125.242188 35.785156 C 125.753906 36.738281 126.238281 37.703125 126.703125 38.679688 C 127.164062 39.65625 127.601562 40.640625 128.015625 41.640625 C 128.429688 42.636719 128.820312 43.644531 129.183594 44.664062 C 129.546875 45.679688 129.886719 46.707031 130.199219 47.738281 C 130.515625 48.773438 130.804688 49.8125 131.066406 50.863281 C 131.328125 51.910156 131.566406 52.964844 131.777344 54.023438 C 131.988281 55.082031 132.171875 56.148438 132.332031 57.214844 C 132.488281 58.285156 132.621094 59.355469 132.726562 60.429688 C 132.835938 61.507812 132.914062 62.582031 132.96875 63.664062 C 133.019531 64.742188 133.046875 65.820312 133.046875 66.902344 Z M 133.046875 66.902344 "/>
</g>
</g>
<clipPath id="clip8">
  <path d="M 79.296875 155 L 212 155 L 212 288 L 79.296875 288 Z M 79.296875 155 "/>
</clipPath>
<mask id="mask2">
  <g filter="url(#alpha)">
<rect x="0" y="0" width="375" height="374.999991" style="fill:rgb(0%,0%,0%);fill-opacity:0.298;stroke:none;"/>
  </g>
</mask>
<clipPath id="clip10">
  <path d="M 0.296875 0.519531 L 132.679688 0.519531 L 132.679688 133 L 0.296875 133 Z M 0.296875 0.519531 "/>
</clipPath>
<clipPath id="clip9">
  <rect x="0" y="0" width="133" height="133"/>
</clipPath>
<g id="surface11" clip-path="url(#clip9)">
<g clip-path="url(#clip10)" clip-rule="nonzero">
<path style=" stroke:none;fill-rule:nonzero;fill:rgb(0%,0%,0%);fill-opacity:1;" d="M 132.199219 66.761719 C 132.199219 67.839844 132.171875 68.917969 132.121094 69.996094 C 132.066406 71.070312 131.988281 72.148438 131.882812 73.21875 C 131.777344 74.292969 131.644531 75.363281 131.484375 76.429688 C 131.328125 77.496094 131.144531 78.554688 130.933594 79.613281 C 130.722656 80.671875 130.484375 81.722656 130.222656 82.769531 C 129.960938 83.8125 129.671875 84.851562 129.359375 85.882812 C 129.046875 86.917969 128.707031 87.9375 128.34375 88.953125 C 127.980469 89.96875 127.59375 90.976562 127.179688 91.972656 C 126.765625 92.96875 126.328125 93.953125 125.867188 94.925781 C 125.40625 95.902344 124.921875 96.863281 124.410156 97.816406 C 123.902344 98.765625 123.371094 99.703125 122.816406 100.628906 C 122.261719 101.550781 121.683594 102.460938 121.085938 103.359375 C 120.484375 104.253906 119.863281 105.136719 119.21875 106.003906 C 118.578125 106.867188 117.914062 107.71875 117.230469 108.550781 C 116.542969 109.382812 115.839844 110.199219 115.113281 111 C 114.390625 111.796875 113.644531 112.578125 112.882812 113.339844 C 112.121094 114.101562 111.339844 114.847656 110.539062 115.570312 C 109.738281 116.292969 108.921875 117 108.085938 117.683594 C 107.253906 118.367188 106.402344 119.027344 105.535156 119.671875 C 104.667969 120.3125 103.785156 120.933594 102.886719 121.53125 C 101.992188 122.132812 101.078125 122.707031 100.152344 123.261719 C 99.226562 123.816406 98.289062 124.347656 97.335938 124.855469 C 96.386719 125.363281 95.421875 125.847656 94.445312 126.308594 C 93.46875 126.769531 92.484375 127.207031 91.488281 127.621094 C 90.488281 128.03125 89.484375 128.421875 88.464844 128.785156 C 87.449219 129.148438 86.425781 129.484375 85.394531 129.796875 C 84.359375 130.109375 83.320312 130.398438 82.273438 130.660156 C 81.226562 130.921875 80.171875 131.160156 79.113281 131.367188 C 78.054688 131.578125 76.992188 131.761719 75.925781 131.921875 C 74.855469 132.078125 73.785156 132.210938 72.710938 132.316406 C 71.636719 132.421875 70.5625 132.503906 69.484375 132.554688 C 68.40625 132.609375 67.328125 132.632812 66.246094 132.632812 C 65.167969 132.632812 64.089844 132.609375 63.011719 132.554688 C 61.933594 132.503906 60.859375 132.421875 59.785156 132.316406 C 58.710938 132.210938 57.636719 132.078125 56.570312 131.921875 C 55.503906 131.761719 54.441406 131.578125 53.382812 131.367188 C 52.324219 131.160156 51.269531 130.921875 50.222656 130.660156 C 49.175781 130.398438 48.136719 130.109375 47.101562 129.796875 C 46.070312 129.484375 45.046875 129.148438 44.03125 128.785156 C 43.011719 128.421875 42.007812 128.03125 41.007812 127.621094 C 40.011719 127.207031 39.027344 126.769531 38.050781 126.308594 C 37.074219 125.847656 36.109375 125.363281 35.160156 124.855469 C 34.207031 124.347656 33.269531 123.816406 32.34375 123.261719 C 31.417969 122.707031 30.503906 122.132812 29.605469 121.53125 C 28.710938 120.933594 27.828125 120.3125 26.960938 119.671875 C 26.09375 119.027344 25.242188 118.367188 24.410156 117.683594 C 23.574219 117 22.757812 116.292969 21.957031 115.570312 C 21.15625 114.847656 20.375 114.101562 19.613281 113.339844 C 18.851562 112.578125 18.105469 111.796875 17.382812 111 C 16.65625 110.199219 15.953125 109.382812 15.265625 108.550781 C 14.582031 107.71875 13.917969 106.867188 13.273438 106.003906 C 12.632812 105.136719 12.011719 104.253906 11.410156 103.359375 C 10.8125 102.460938 10.234375 101.550781 9.679688 100.628906 C 9.125 99.703125 8.59375 98.765625 8.085938 97.816406 C 7.574219 96.863281 7.089844 95.902344 6.628906 94.925781 C 6.167969 93.953125 5.730469 92.96875 5.316406 91.972656 C 4.902344 90.976562 4.515625 89.96875 4.152344 88.953125 C 3.789062 87.9375 3.449219 86.917969 3.136719 85.882812 C 2.824219 84.851562 2.535156 83.8125 2.273438 82.769531 C 2.011719 81.722656 1.773438 80.671875 1.5625 79.613281 C 1.351562 78.554688 1.167969 77.496094 1.011719 76.429688 C 0.851562 75.363281 0.71875 74.292969 0.613281 73.21875 C 0.507812 72.148438 0.429688 71.070312 0.375 69.996094 C 0.324219 68.917969 0.296875 67.839844 0.296875 66.761719 C 0.296875 65.683594 0.324219 64.609375 0.375 63.53125 C 0.429688 62.453125 0.507812 61.378906 0.613281 60.304688 C 0.71875 59.234375 0.851562 58.164062 1.011719 57.097656 C 1.167969 56.03125 1.351562 54.96875 1.5625 53.914062 C 1.773438 52.855469 2.011719 51.804688 2.273438 50.757812 C 2.535156 49.710938 2.824219 48.671875 3.136719 47.640625 C 3.449219 46.609375 3.789062 45.585938 4.152344 44.570312 C 4.515625 43.558594 4.902344 42.550781 5.316406 41.554688 C 5.730469 40.558594 6.167969 39.574219 6.628906 38.597656 C 7.089844 37.625 7.574219 36.664062 8.085938 35.710938 C 8.59375 34.761719 9.125 33.824219 9.679688 32.898438 C 10.234375 31.972656 10.8125 31.0625 11.410156 30.167969 C 12.011719 29.269531 12.632812 28.390625 13.273438 27.523438 C 13.917969 26.65625 14.582031 25.808594 15.265625 24.976562 C 15.953125 24.140625 16.65625 23.324219 17.382812 22.527344 C 18.105469 21.726562 18.851562 20.949219 19.613281 20.183594 C 20.375 19.421875 21.15625 18.679688 21.957031 17.957031 C 22.757812 17.230469 23.574219 16.527344 24.410156 15.84375 C 25.242188 15.160156 26.09375 14.496094 26.960938 13.855469 C 27.828125 13.210938 28.710938 12.59375 29.605469 11.992188 C 30.503906 11.394531 31.417969 10.816406 32.34375 10.261719 C 33.269531 9.710938 34.207031 9.179688 35.160156 8.667969 C 36.109375 8.160156 37.074219 7.675781 38.050781 7.214844 C 39.027344 6.753906 40.011719 6.320312 41.007812 5.90625 C 42.007812 5.492188 43.011719 5.105469 44.03125 4.742188 C 45.046875 4.378906 46.070312 4.042969 47.101562 3.726562 C 48.136719 3.414062 49.175781 3.128906 50.222656 2.867188 C 51.269531 2.605469 52.324219 2.367188 53.382812 2.15625 C 54.441406 1.945312 55.503906 1.761719 56.570312 1.605469 C 57.636719 1.445312 58.710938 1.316406 59.785156 1.210938 C 60.859375 1.101562 61.933594 1.023438 63.011719 0.972656 C 64.089844 0.917969 65.167969 0.890625 66.246094 0.890625 C 67.328125 0.890625 68.40625 0.917969 69.484375 0.972656 C 70.5625 1.023438 71.636719 1.101562 72.710938 1.210938 C 73.785156 1.316406 74.855469 1.445312 75.925781 1.605469 C 76.992188 1.761719 78.054688 1.945312 79.113281 2.15625 C 80.171875 2.367188 81.226562 2.605469 82.273438 2.867188 C 83.320312 3.128906 84.359375 3.414062 85.394531 3.726562 C 86.425781 4.042969 87.449219 4.378906 88.464844 4.742188 C 89.484375 5.105469 90.488281 5.492188 91.488281 5.90625 C 92.484375 6.320312 93.46875 6.753906 94.445312 7.214844 C 95.421875 7.675781 96.386719 8.160156 97.335938 8.667969 C 98.289062 9.179688 99.226562 9.710938 100.152344 10.261719 C 101.078125 10.816406 101.992188 11.394531 102.886719 11.992188 C 103.785156 12.59375 104.667969 13.210938 105.535156 13.855469 C 106.402344 14.496094 107.253906 15.160156 108.085938 15.84375 C 108.921875 16.527344 109.738281 17.230469 110.539062 17.957031 C 111.335938 18.679688 112.121094 19.421875 112.882812 20.183594 C 113.644531 20.949219 114.390625 21.726562 115.113281 22.527344 C 115.839844 23.324219 116.542969 24.140625 117.230469 24.976562 C 117.914062 25.808594 118.578125 26.65625 119.21875 27.523438 C 119.863281 28.390625 120.484375 29.269531 121.085938 30.167969 C 121.683594 31.0625 122.261719 31.972656 122.816406 32.898438 C 123.371094 33.824219 123.902344 34.761719 124.410156 35.710938 C 124.921875 36.664062 125.40625 37.625 125.867188 38.597656 C 126.328125 39.574219 126.765625 40.558594 127.179688 41.554688 C 127.59375 42.550781 127.980469 43.558594 128.34375 44.570312 C 128.707031 45.585938 129.046875 46.609375 129.359375 47.640625 C 129.671875 48.671875 129.960938 49.710938 130.222656 50.757812 C 130.484375 51.804688 130.722656 52.855469 130.933594 53.914062 C 131.144531 54.96875 131.328125 56.03125 131.484375 57.097656 C 131.644531 58.164062 131.777344 59.234375 131.882812 60.304688 C 131.988281 61.378906 132.066406 62.453125 132.121094 63.53125 C 132.171875 64.609375 132.199219 65.683594 132.199219 66.761719 Z M 132.199219 66.761719 "/>
</g>
</g>
</defs>
<g id="surface1">
<rect x="0" y="0" width="375" height="374.999991" style="fill:rgb(100%,100%,100%);fill-opacity:1;stroke:none;"/>
<rect x="0" y="0" width="375" height="374.999991" style="fill:rgb(100%,100%,100%);fill-opacity:1;stroke:none;"/>
<rect x="0" y="0" width="375" height="374.999991" style="fill:rgb(3.529358%,14.509583%,29.40979%);fill-opacity:1;stroke:none;"/>
<g clip-path="url(#clip1)" clip-rule="nonzero">
<path style=" stroke:none;fill-rule:nonzero;fill:rgb(90.19928%,31.369019%,34.118652%);fill-opacity:1;" d="M 296.046875 221.902344 C 296.046875 258.359375 266.457031 287.910156 229.957031 287.910156 C 213.78125 287.910156 198.941406 282.109375 187.417969 272.445312 C 175.988281 281.972656 161.285156 287.679688 145.246094 287.679688 C 108.839844 287.679688 79.296875 258.175781 79.296875 221.761719 C 79.296875 192.625 98.238281 167.90625 124.507812 159.207031 C 124.140625 156.445312 123.957031 153.636719 123.957031 150.828125 C 123.957031 115.660156 152.484375 87.167969 187.695312 87.167969 C 222.90625 87.167969 251.433594 115.660156 251.433594 150.828125 C 251.433594 153.683594 251.25 156.488281 250.878906 159.253906 C 277.105469 168 296.046875 192.71875 296.046875 221.902344 Z M 296.046875 221.902344 "/>
</g>
<g clip-path="url(#clip2)" clip-rule="nonzero">
<use xlink:href="#surface5" transform="matrix(1,0,0,1,123,87)" mask="url(#mask0)"/>
</g>
<g clip-path="url(#clip5)" clip-rule="nonzero">
<use xlink:href="#surface8" transform="matrix(1,0,0,1,163,155)" mask="url(#mask1)"/>
</g>
<g clip-path="url(#clip8)" clip-rule="nonzero">
<use xlink:href="#surface11" transform="matrix(1,0,0,1,79,155)" mask="url(#mask2)"/>
</g>
</g>
</svg>
